<svg width="190" height="165" viewBox="0 0 190 165" fill="none" xmlns="http://www.w3.org/2000/svg">
<circle cx="64" cy="101" r="63.4677" fill="#FF9900" stroke="#FF9900" stroke-width="1.06452"/>
<path fill-rule="evenodd" clip-rule="evenodd" d="M121.677 50.0324C112.27 50.0324 104.645 57.658 104.645 67.0646C104.645 76.4713 112.27 84.0969 121.677 84.0969C131.084 84.0969 138.709 76.4713 138.709 67.0646C138.709 57.658 131.084 50.0324 121.677 50.0324ZM102.516 67.0646C102.516 56.4821 111.094 47.9033 121.677 47.9033C132.259 47.9033 140.838 56.4821 140.838 67.0646C140.838 77.6471 132.259 86.2259 121.677 86.2259C111.094 86.2259 102.516 77.6471 102.516 67.0646Z" fill="black"/>
<path fill-rule="evenodd" clip-rule="evenodd" d="M122.21 2.13463C119.285 2.13463 116.48 3.29661 114.411 5.36494C112.343 7.43327 111.181 10.2385 111.181 13.1636V14.1918L111.181 14.196C111.173 16.3504 110.534 18.4552 109.345 20.2514C108.155 22.0476 106.466 23.4568 104.486 24.3055C104.353 24.3624 104.21 24.3918 104.066 24.3918H103.801C101.837 25.2098 99.6778 25.4442 97.5816 25.0641C95.4098 24.6704 93.4057 23.635 91.8279 22.0915L91.8195 22.0833L91.4566 21.7204C90.4323 20.6949 89.2155 19.881 87.8766 19.326C86.5377 18.771 85.1026 18.4853 83.6532 18.4853C82.2038 18.4853 80.7687 18.771 79.4298 19.326C78.0909 19.881 76.8745 20.6945 75.8502 21.72L75.8494 21.7208C74.824 22.7451 74.0105 23.9615 73.4555 25.3004C72.9004 26.6392 72.6147 28.0744 72.6147 29.5238C72.6147 30.9732 72.9004 32.4083 73.4555 33.7472C74.0105 35.0861 74.824 36.3025 75.8494 37.3268L76.221 37.6984C77.7645 39.2763 78.7998 41.2804 79.1936 43.4522C79.5854 45.6129 79.3242 47.8412 78.4439 49.8524C77.6765 51.9194 76.308 53.7098 74.5142 54.9927C72.7113 56.2823 70.5622 56.9995 68.3462 57.0514L68.3212 57.0517H67.7769C64.8518 57.0517 62.0465 58.2136 59.9782 60.282C57.9099 62.3503 56.7479 65.1556 56.7479 68.0806C56.7479 71.0057 57.9099 73.8109 59.9782 75.8793C62.0465 77.9476 64.8518 79.1096 67.7769 79.1096H68.8093C70.9637 79.1182 73.0685 79.7565 74.8647 80.9461C76.6593 82.1346 78.0676 83.8215 78.9165 85.7994C79.8058 87.8173 80.0709 90.0553 79.6774 92.2252C79.2836 94.397 78.2483 96.4011 76.7048 97.979L76.6966 97.9874L76.3337 98.3502C75.3082 99.3745 74.4943 100.591 73.9393 101.93C73.3843 103.269 73.0986 104.704 73.0986 106.154C73.0986 107.603 73.3843 109.038 73.9393 110.377C74.4943 111.716 75.3078 112.932 76.3332 113.957L76.3341 113.957C77.3584 114.983 78.5747 115.796 79.9136 116.351C81.2525 116.906 82.6877 117.192 84.1371 117.192C85.5864 117.192 87.0216 116.906 88.3605 116.351C89.6994 115.796 90.9157 114.983 91.94 113.957L92.3117 113.586C93.8895 112.042 95.8937 111.007 98.0655 110.613C100.226 110.221 102.454 110.483 104.466 111.363C106.533 112.13 108.323 113.499 109.606 115.293C110.896 117.096 111.613 119.245 111.665 121.461L111.665 121.486V122.03C111.665 124.955 112.827 127.76 114.895 129.829C116.964 131.897 119.769 133.059 122.694 133.059C125.619 133.059 128.424 131.897 130.493 129.829C132.561 127.76 133.723 124.955 133.723 122.03V121.002L133.723 120.998C133.731 118.843 134.37 116.738 135.559 114.942C136.748 113.148 138.434 111.739 140.412 110.891C142.43 110.001 144.668 109.736 146.838 110.129C149.01 110.523 151.014 111.559 152.592 113.102L152.601 113.11L152.964 113.473C153.988 114.499 155.205 115.312 156.543 115.868C157.882 116.423 159.318 116.708 160.767 116.708C162.216 116.708 163.651 116.423 164.99 115.868C166.329 115.312 167.546 114.499 168.57 113.474L168.571 113.473C169.596 112.448 170.41 111.232 170.965 109.893C171.52 108.554 171.805 107.119 171.805 105.67C171.805 104.22 171.52 102.785 170.965 101.446C170.41 100.107 169.596 98.8911 168.571 97.8668L168.199 97.4951C166.656 95.9173 165.62 93.9132 165.227 91.7414C164.833 89.5712 165.098 87.3331 165.988 85.315C166.837 83.3373 168.245 81.6506 170.039 80.4622C171.835 79.2727 173.94 78.6343 176.095 78.6257L176.099 78.6257L176.643 78.6257C179.568 78.6257 182.374 77.4637 184.442 75.3954C186.51 73.3271 187.672 70.5218 187.672 67.5968C187.672 64.6717 186.51 61.8665 184.442 59.7981C182.374 57.7298 179.568 56.5678 176.643 56.5678H175.615L175.611 56.5678C173.456 56.5592 171.352 55.9209 169.555 54.7313C167.759 53.5418 166.35 51.853 165.501 49.8728C165.444 49.74 165.415 49.5969 165.415 49.4524V49.1876C164.597 47.2242 164.363 45.0645 164.743 42.9683C165.136 40.7965 166.172 38.7925 167.715 37.2146L167.724 37.2062L168.086 36.8433C169.112 35.819 169.926 34.6022 170.481 33.2634C171.036 31.9245 171.322 30.4893 171.322 29.0399C171.322 27.5906 171.036 26.1554 170.481 24.8165C169.926 23.4776 169.112 22.2612 168.087 21.2369L168.086 21.2361C167.062 20.2107 165.845 19.3972 164.506 18.8422C163.168 18.2871 161.732 18.0015 160.283 18.0015C158.834 18.0015 157.399 18.2871 156.06 18.8422C154.721 19.3972 153.504 20.2107 152.48 21.2361L152.108 21.6077C150.531 23.1512 148.526 24.1865 146.355 24.5803C144.185 24.9737 141.947 24.7087 139.929 23.8194C137.951 22.9705 136.264 21.5622 135.075 19.7676C133.886 17.9714 133.248 15.8665 133.239 13.7122L133.239 13.7079V13.1636C133.239 10.2385 132.077 7.43327 130.009 5.36494C127.94 3.29661 125.135 2.13463 122.21 2.13463ZM112.902 3.85552C115.371 1.38687 118.719 0 122.21 0C125.701 0 129.049 1.38687 131.518 3.85552C133.987 6.32417 135.374 9.67238 135.374 13.1636L135.374 13.7037C135.374 13.7043 135.374 13.705 135.374 13.7056C135.381 15.443 135.896 17.1404 136.855 18.5889C137.815 20.038 139.177 21.1749 140.775 21.8596L140.785 21.8641C142.415 22.5831 144.222 22.7976 145.974 22.4799C147.724 22.1625 149.339 21.3287 150.612 20.0856C150.613 20.0843 150.614 20.083 150.616 20.0817L150.97 19.7275C150.97 19.7277 150.97 19.7274 150.97 19.7275C152.192 18.5038 153.644 17.5326 155.242 16.8703C156.84 16.2078 158.553 15.8668 160.283 15.8668C162.013 15.8668 163.726 16.2078 165.324 16.8703C166.922 17.5325 168.373 18.5032 169.595 19.7267C170.819 20.9492 171.79 22.401 172.453 23.9991C173.115 25.5971 173.456 27.31 173.456 29.0399C173.456 30.7698 173.115 32.4828 172.453 34.0808C171.79 35.6788 170.819 37.1306 169.595 38.3532L169.241 38.7073C169.24 38.7087 169.239 38.71 169.237 38.7114C167.994 39.9838 167.16 41.5989 166.843 43.3492C166.525 45.1013 166.74 46.9085 167.459 48.5376C167.519 48.6733 167.55 48.8201 167.55 48.9685V49.2268C168.242 50.7403 169.344 52.0312 170.734 52.9516C172.183 53.9109 173.88 54.4259 175.617 54.4332H176.643C180.134 54.4332 183.483 55.8201 185.951 58.2887C188.42 60.7574 189.807 64.1056 189.807 67.5968C189.807 71.088 188.42 74.4362 185.951 76.9048C183.483 79.3735 180.134 80.7604 176.643 80.7604L176.103 80.7603C176.103 80.7603 176.102 80.7604 176.101 80.7604C174.364 80.7677 172.666 81.2826 171.218 82.242C169.769 83.2016 168.632 84.5641 167.947 86.1616L167.943 86.1721C167.224 87.8012 167.009 89.6084 167.327 91.3605C167.644 93.1107 168.478 94.7258 169.721 95.9981C169.722 95.9995 169.724 96.001 169.725 96.0024L170.079 96.3565C170.079 96.3564 170.079 96.3567 170.079 96.3565C171.303 97.579 172.274 99.0311 172.937 100.629C173.599 102.227 173.94 103.94 173.94 105.67C173.94 107.4 173.599 109.113 172.937 110.711C172.274 112.308 171.303 113.76 170.08 114.983C168.857 116.206 167.406 117.177 165.808 117.839C164.21 118.502 162.497 118.843 160.767 118.843C159.037 118.843 157.324 118.502 155.726 117.839C154.128 117.177 152.677 116.206 151.454 114.983C151.454 114.982 151.454 114.983 151.454 114.983L151.1 114.628C151.098 114.627 151.097 114.625 151.095 114.624C149.823 113.381 148.208 112.547 146.458 112.23C144.705 111.912 142.898 112.127 141.269 112.846L141.259 112.85C139.661 113.535 138.299 114.672 137.339 116.121C136.38 117.569 135.865 119.267 135.857 121.004C135.857 121.005 135.857 121.005 135.857 121.006L135.857 122.03C135.857 125.521 134.471 128.869 132.002 131.338C129.533 133.807 126.185 135.194 122.694 135.194C119.203 135.194 115.854 133.807 113.386 131.338C110.917 128.869 109.53 125.521 109.53 122.03V121.498C109.486 119.715 108.908 117.986 107.87 116.534C106.829 115.08 105.376 113.972 103.697 113.355C103.686 113.35 103.675 113.346 103.663 113.342C103.654 113.338 103.644 113.334 103.635 113.329C102.006 112.61 100.198 112.396 98.4463 112.714C96.6961 113.031 95.0809 113.865 93.8086 115.108C93.8072 115.109 93.8058 115.11 93.8044 115.112L93.4503 115.466C92.2278 116.69 90.776 117.661 89.1779 118.323C87.5799 118.986 85.867 119.327 84.1371 119.327C82.4072 119.327 80.6942 118.986 79.0962 118.323C77.4982 117.661 76.0464 116.69 74.8238 115.466C73.6003 114.244 72.6297 112.792 71.9674 111.194C71.3049 109.596 70.964 107.884 70.964 106.154C70.964 104.424 71.3049 102.711 71.9674 101.113C72.6298 99.5149 73.6005 98.0632 74.8242 96.8408C74.8241 96.8409 74.8244 96.8407 74.8242 96.8408L75.1789 96.4863C75.1802 96.4849 75.1815 96.4836 75.1828 96.4822C76.4258 95.2099 77.2597 93.5946 77.577 91.8444C77.8947 90.0922 77.6803 88.2851 76.9613 86.656L76.9567 86.6455C76.272 85.048 75.1352 83.6855 73.6861 82.7258C72.2375 81.7665 70.5401 81.2515 68.8028 81.2442C68.8021 81.2442 68.8015 81.2442 68.8008 81.2442L67.7769 81.2442C64.2857 81.2442 60.9375 79.8573 58.4688 77.3887C56.0002 74.92 54.6133 71.5718 54.6133 68.0806C54.6133 64.5894 56.0002 61.2412 58.4688 58.7726C60.9375 56.3039 64.2857 54.917 67.7769 54.917H68.3084C70.0919 54.8729 71.8212 54.2945 73.2724 53.2565C74.727 52.2162 75.8349 50.7623 76.4522 49.084C76.4599 49.0629 76.4683 49.042 76.4774 49.0214C77.1964 47.3923 77.4109 45.5852 77.0932 43.833C76.7758 42.0828 75.942 40.4675 74.699 39.1952L74.3408 38.837C73.1169 37.6145 72.146 36.1627 71.4835 34.5646C70.8211 32.9666 70.4801 31.2537 70.4801 29.5238C70.4801 27.7939 70.8211 26.0809 71.4835 24.4829C72.146 22.8849 73.1169 21.4331 74.3408 20.2105C75.5632 18.987 77.0147 18.0164 78.6123 17.3541C80.2104 16.6917 81.9233 16.3507 83.6532 16.3507C85.3831 16.3507 87.096 16.6917 88.6941 17.3541C90.2919 18.0165 91.7436 18.9873 92.966 20.211C92.9659 20.2108 92.9662 20.2111 92.966 20.211L93.3247 20.5697C94.597 21.8126 96.2122 22.6464 97.9625 22.9638C99.7146 23.2815 101.522 23.067 103.151 22.348C103.287 22.2881 103.433 22.2571 103.582 22.2571H103.84C105.354 21.5652 106.644 20.4626 107.565 19.0728C108.524 17.6242 109.039 15.9269 109.046 14.1895V13.1636C109.046 9.67238 110.433 6.32417 112.902 3.85552Z" fill="black"/>
</svg>
